<?xml version="1.0" encoding="utf-8"?>
<!-- Generator: Adobe Illustrator 21.0.2, SVG Export Plug-In . SVG Version: 6.00 Build 0)  -->
<svg version="1.1" id="aging-expo-north-hall" xmlns="http://www.w3.org/2000/svg" xmlns:xlink="http://www.w3.org/1999/xlink" x="0px" y="0px" viewBox="0 0 844 717" style="enable-background:new 0 0 844 717;" xml:space="preserve">
	<style type="text/css">
		.booth-background {
			fill: #04549B;
		}

		text {
			font-family: 'Arial';
		}

		.booth-large-text {
			font-size: 16px;
		}

		.booth-label {
			fill: #FFFFFF;
		}

		.booth-small-text {
			font-size: 11px;
		}
	</style>
	<desc>Senior Expo/Baby Boomer Expo Floor Plans</desc>
	<g>
		<g id="2006">
			<path vector-effect="none" class="booth-background" d="M438,629h338v88H438V629" />
		</g>
		<g id="2007">
			<text transform="matrix(1 0 0 1 4.2656 18)" class="st1 booth-large-text">Entrance</text>
			<text transform="matrix(1 0 0 1 387.7656 18)" class="st1 booth-large-text">Entrance</text>
			<text transform="matrix(1 0 0 1 771.2656 18)" class="st1 booth-large-text">Entrance</text>
		</g>
		<g id="100">
			<path vector-effect="none" class="booth-background" d="M63,84.6h32v28H63V84.6" />
			<text transform="matrix(1.125 0 0 1 68.8752 101.5787)" class="booth-label st1 booth-small-text">100</text>
		</g>
		<g id="101">
			<path vector-effect="none" class="booth-background" d="M101.1,84.6h32v28h-32V84.6" />
			<text transform="matrix(1.125 0 0 1 107.0001 101.5787)" class="booth-label st1 booth-small-text">101</text>
		</g>
		<g id="102">
			<path vector-effect="none" class="booth-background" d="M139.3,84.6h32v28h-32V84.6" />
			<text transform="matrix(1.125 0 0 1 145.1255 101.5787)" class="booth-label st1 booth-small-text">102</text>
		</g>
		<g id="103">
			<path vector-effect="none" class="booth-background" d="M177.4,84.6h32v28h-32V84.6" />
			<text transform="matrix(1.125 0 0 1 179.8757 101.5787)" class="booth-label st1 booth-small-text">103</text>
		</g>
		<g id="104">
			<path vector-effect="none" class="booth-background" d="M215.5,84.6h32v28h-32V84.6" />
			<text transform="matrix(1.125 0 0 1 221.3759 101.5787)" class="booth-label st1 booth-small-text">104</text>
		</g>
		<g id="105">
			<path vector-effect="none" class="booth-background" d="M253.6,84.6h32v28h-32V84.6" />
			<text transform="matrix(1.125 0 0 1 259.5009 101.5787)" class="booth-label st1 booth-small-text">105</text>
		</g>
		<g id="106">
			<path vector-effect="none" class="booth-background" d="M291.8,84.6h32v28h-32V84.6" />
			<text transform="matrix(1.125 0 0 1 297.6255 101.5787)" class="booth-label st1 booth-small-text">106</text>
		</g>
		<g id="107">
			<path vector-effect="none" class="booth-background" d="M329.9,84.6h32v28h-32V84.6" />
			<text transform="matrix(1.125 0 0 1 335.7503 101.5787)" class="booth-label st1 booth-small-text">107</text>
		</g>
		<g id="108">
			<path vector-effect="none" class="booth-background" d="M370,84.6h32v28h-32V84.6" />
			<text transform="matrix(1.125 0 0 1 375.8747 101.5787)" class="booth-label st1 booth-small-text">108</text>
		</g>
		<g id="109">
			<path vector-effect="none" class="booth-background" d="M438,68.6h32v28h-32V68.6" />
			<text transform="matrix(1 0 0 1 445 85.6)" class="booth-label st1 booth-small-text">109</text>
		</g>
		<g id="110">
			<path vector-effect="none" class="booth-background" d="M472.2,68.6h32v28h-32V68.6" />
			<text transform="matrix(1 0 0 1 479.7222 85.6)" class="booth-label st1 booth-small-text">110</text>
		</g>
		<g id="111">
			<path vector-effect="none" class="booth-background" d="M506.4,68.6h32v28h-32V68.6" />
			<text transform="matrix(1 0 0 1 514.4445 85.6)" class="booth-label st1 booth-small-text">111</text>
		</g>
		<g id="112">
			<path vector-effect="none" class="booth-background" d="M540.7,68.6h32v28h-32V68.6" />
			<text transform="matrix(1 0 0 1 548.1667 85.6)" class="booth-label st1 booth-small-text">112</text>
		</g>
		<g id="113">
			<path vector-effect="none" class="booth-background" d="M574.9,68.6h32v28h-32V68.6" />
			<text transform="matrix(1 0 0 1 582.3889 85.6)" class="booth-label st1 booth-small-text">113</text>
		</g>
		<g id="114">
			<path vector-effect="none" class="booth-background" d="M609.1,68.6h32v28h-32V68.6" />
			<text transform="matrix(1 0 0 1 616.6111 85.6)" class="booth-label st1 booth-small-text">114</text>
		</g>
		<g id="115">
			<path vector-effect="none" class="booth-background" d="M643.3,68.6h32v28h-32V68.6" />
			<text transform="matrix(1 0 0 1 650.8334 85.6)" class="booth-label st1 booth-small-text">115</text>
		</g>
		<g id="116">
			<path vector-effect="none" class="booth-background" d="M677.6,68.6h32v28h-32V68.6" />
			<text transform="matrix(1 0 0 1 685.0555 85.6)" class="booth-label st1 booth-small-text">116</text>
		</g>
		<g id="117">
			<path vector-effect="none" class="booth-background" d="M711.8,68.6h32v28h-32V68.6" />
			<text transform="matrix(1 0 0 1 717.7778 85.6)" class="booth-label st1 booth-small-text">117</text>
		</g>
		<g id="118">
			<path vector-effect="none" class="booth-background" d="M746,68.6h53v28h-53V68.6" />
			<text transform="matrix(1 0 0 1 752.5 85.6)" class="booth-label st1 booth-small-text">118/119</text>
		</g>
		<g id="500">
			<path vector-effect="none" class="booth-background" d="M0,146h32v28H0V146" />
			<text transform="matrix(1.125 0 0 1 5.875 165)" class="booth-label st1 booth-small-text">500</text>
		</g>
		<g id="120">
			<path vector-effect="none" class="booth-background" d="M63,146h32v28H63V146" />
			<text transform="matrix(1.125 0 0 1 68.875 163)" class="booth-label st1 booth-small-text">120</text>
		</g>
		<g id="121">
			<path vector-effect="none" class="booth-background" d="M105.8,146h32v28h-32V146" />
			<text transform="matrix(1.125 0 0 1 111.625 163)" class="booth-label st1 booth-small-text">121</text>
		</g>
		<g id="122">
			<path vector-effect="none" class="booth-background" d="M148.5,146h32v28h-32V146" />
			<text transform="matrix(1.125 0 0 1 154.375 163)" class="booth-label st1 booth-small-text">122</text>
		</g>
		<g id="2000">
			<path vector-effect="none" class="booth-background" d="M233,137h169v94H233V137" />
			<text transform="matrix(1 0 0 1 264.8867 187.8516)" class="booth-label st1 booth-large-text">Feature Area 1</text>
		</g>
		<g id="128">
			<path vector-effect="none" class="booth-background" d="M438,146h32v66h-32V146" />
			<text transform="matrix(1 0 0 1 444.8232 184)" class="booth-label st1 booth-small-text">128</text>
		</g>
		<g id="129">
			<path vector-effect="none" class="booth-background" d="M471.9,146h32v28h-32V146" />
			<text transform="matrix(1 0 0 1 478.9333 163)" class="booth-label st1 booth-small-text">129</text>
		</g>
		<g id="130">
			<path vector-effect="none" class="booth-background" d="M505.9,146h32v28h-32V146" />
			<text transform="matrix(1 0 0 1 512.8667 163)" class="booth-label st1 booth-small-text">130</text>
		</g>
		<g id="131">
			<path vector-effect="none" class="booth-background" d="M539.8,146h32v28h-32V146" />
			<text transform="matrix(1 0 0 1 546.8 163)" class="booth-label st1 booth-small-text">131</text>
		</g>
		<g id="132">
			<path vector-effect="none" class="booth-background" d="M573.7,146h32v28h-32V146" />
			<text transform="matrix(1 0 0 1 580.7333 163)" class="booth-label st1 booth-small-text">132</text>
		</g>
		<g id="133">
			<path vector-effect="none" class="booth-background" d="M607.7,146h32v28h-32V146" />
			<text transform="matrix(1 0 0 1 614.6667 163)" class="booth-label st1 booth-small-text">133</text>
		</g>
		<g id="134">
			<path vector-effect="none" class="booth-background" d="M673,146h32v28h-32V146" />
			<text transform="matrix(1 0 0 1 680 166)" class="booth-label st1 booth-small-text">134</text>
		</g>
		<g id="135">
			<path vector-effect="none" class="booth-background" d="M708.8,146h32v28h-32V146" />
			<text transform="matrix(1 0 0 1 715.8334 166)" class="booth-label st1 booth-small-text">135</text>
		</g>
		<g id="136">
			<path vector-effect="none" class="booth-background" d="M744.7,146h32v28h-32V146" />
			<text transform="matrix(1 0 0 1 751.6667 166)" class="booth-label st1 booth-small-text">136</text>
		</g>
		<g id="501">
			<path vector-effect="none" class="booth-background" d="M0,178.9h32v28H0V178.9" />
			<text transform="matrix(1.125 0 0 1 5.875 197.8516)" class="booth-label st1 booth-small-text">501</text>
		</g>
		<g id="200">
			<path vector-effect="none" class="booth-background" d="M63,184h32v28H63V184" />
			<text transform="matrix(1.125 0 0 1 68.875 201)" class="booth-label st1 booth-small-text">200</text>
		</g>
		<g id="201">
			<path vector-effect="none" class="booth-background" d="M105.8,184h32v28h-32V184" />
			<text transform="matrix(1.125 0 0 1 111.625 201)" class="booth-label st1 booth-small-text">201</text>
		</g>
		<g id="202">
			<path vector-effect="none" class="booth-background" d="M148.5,184h32v28h-32V184" />
			<text transform="matrix(1.125 0 0 1 154.375 201)" class="booth-label st1 booth-small-text">202</text>
		</g>
		<g id="209">
			<path vector-effect="none" class="booth-background" d="M471.9,184h32v28h-32V184" />
			<text transform="matrix(1 0 0 1 478.9333 201)" class="booth-label st1 booth-small-text">209</text>
		</g>
		<g id="210">
			<path vector-effect="none" class="booth-background" d="M505.9,184h32v28h-32V184" />
			<text transform="matrix(1 0 0 1 512.8667 201)" class="booth-label st1 booth-small-text">210</text>
		</g>
		<g id="211">
			<path vector-effect="none" class="booth-background" d="M539.8,184h32v28h-32V184" />
			<text transform="matrix(1 0 0 1 547.3 201)" class="booth-label st1 booth-small-text">211</text>
		</g>
		<g id="212">
			<path vector-effect="none" class="booth-background" d="M573.7,184h32v28h-32V184" />
			<text transform="matrix(1 0 0 1 580.7333 201)" class="booth-label st1 booth-small-text">212</text>
		</g>
		<g id="213">
			<path vector-effect="none" class="booth-background" d="M607.7,184h32v28h-32V184" />
			<text transform="matrix(1 0 0 1 614.6667 201)" class="booth-label st1 booth-small-text">213</text>
		</g>
		<g id="214">
			<path vector-effect="none" class="booth-background" d="M673,184h32v28h-32V184" />
			<text transform="matrix(1 0 0 1 681 199)" class="booth-label st1 booth-small-text">214</text>
		</g>
		<g id="215">
			<path vector-effect="none" class="booth-background" d="M708.8,184h32v28h-32V184" />
			<text transform="matrix(1 0 0 1 716.8333 199)" class="booth-label st1 booth-small-text">215</text>
		</g>
		<g id="216">
			<path vector-effect="none" class="booth-background" d="M744.7,184h32v28h-32V184" />
			<text transform="matrix(1 0 0 1 749.6667 199)" class="booth-label st1 booth-small-text">216</text>
		</g>
		<g id="600">
			<path vector-effect="none" class="booth-background" d="M812,194h32v28h-32V194" />
			<text transform="matrix(1 0 0 1 818.8232 213)" class="booth-label st1 booth-small-text">600</text>
		</g>
		<g id="502">
			<path vector-effect="none" class="booth-background" d="M0,211.9h32v28H0V211.9" />
			<text transform="matrix(1.125 0 0 1 5.875 230.8516)" class="booth-label st1 booth-small-text">502</text>
		</g>
		<g id="601">
			<path vector-effect="none" class="booth-background" d="M812,224.5h32v28h-32V224.5" />
			<text transform="matrix(1 0 0 1 818.8228 243.5)" class="booth-label st1 booth-small-text">601</text>
		</g>
		<g id="2001">
			<path vector-effect="none" class="booth-background" d="M63,263h89v166H63V263" />
			<text transform="matrix(1 0 0 1 76.8789 337)" class="booth-label st1 booth-large-text">
				<tspan x="0" y="0">Feature</tspan>
				<tspan x="5" y="25">Area 2</tspan>
			</text>
		</g>
		<g id="602">
			<path vector-effect="none" class="booth-background" d="M812,255h32v28h-32V255" />
			<text transform="matrix(1 0 0 1 818.8228 274)" class="booth-label st1 booth-small-text">602</text>
		</g>
		<g id="233">
			<path vector-effect="none" class="booth-background" d="M455,323h32v28h-32V323" />
			<text transform="matrix(1 0 0 1 462 342)" class="booth-label st1 booth-small-text">233</text>
		</g>
		<g id="241">
			<path vector-effect="none" class="booth-background" d="M727,323h32v28h-32V323" />
			<text transform="matrix(1 0 0 1 734 342)" class="booth-label st1 booth-small-text">241</text>
		</g>
		<g id="603">
			<path vector-effect="none" class="booth-background" d="M812,323h32v28h-32V323" />
			<text transform="matrix(1 0 0 1 818.8228 342)" class="booth-label st1 booth-small-text">603</text>
		</g>
		<g id="503">
			<path vector-effect="none" class="booth-background" d="M0,362h32v28H0V362" />
			<text transform="matrix(1 0 0 1 7 381)" class="booth-label st1 booth-small-text">503</text>
		</g>
		<g id="236">
			<path vector-effect="none" class="booth-background" d="M455,362h32v28h-32V362" />
			<text transform="matrix(1 0 0 1 462 381)" class="booth-label st1 booth-small-text">236</text>
		</g>
		<g id="244">
			<path vector-effect="none" class="booth-background" d="M727,362h32v28h-32V362" />
			<text transform="matrix(1 0 0 1 734 381)" class="booth-label st1 booth-small-text">244</text>
		</g>
		<g id="604">
			<path vector-effect="none" class="booth-background" d="M812,354h32v28h-32V354" />
			<text transform="matrix(1 0 0 1 818.8228 373)" class="booth-label st1 booth-small-text">604</text>
		</g>
		<g id="504">
			<path vector-effect="none" class="booth-background" d="M0,395.8h32v28H0V395.8" />
			<text transform="matrix(1 0 0 1 7 414.8)" class="booth-label st1 booth-small-text">504</text>
		</g>
		<g id="605">
			<path vector-effect="none" class="booth-background" d="M812,385h32v28h-32V385" />
			<text transform="matrix(1 0 0 1 818.8228 404)" class="booth-label st1 booth-small-text">605</text>
		</g>
		<g id="505">
			<path vector-effect="none" class="booth-background" d="M0,429.6h32v28H0V429.6" />
			<g>
				<text transform="matrix(1 0 0 1 7 448.6)" class="booth-label st1 booth-small-text">505</text>
			</g>
		</g>
		<g id="606">
			<path vector-effect="none" class="booth-background" d="M812,416h32v28h-32V416" />
			<text transform="matrix(1 0 0 1 818.8228 435)" class="booth-label st1 booth-small-text">606</text>
		</g>
		<g id="506">
			<path vector-effect="none" class="booth-background" d="M0,463.4h32v28H0V463.4" />
			<text transform="matrix(1 0 0 1 7 482.4)" class="booth-label st1 booth-small-text">506</text>
		</g>
		<g id="249">
			<path vector-effect="none" class="booth-background" d="M63,470h32v28H63V470" />
			<text transform="matrix(1 0 0 1 70 489)" class="booth-label st1 booth-small-text">249</text>
		</g>
		<g id="250">
			<path vector-effect="none" class="booth-background" d="M106.9,470h32v28h-32V470" />
			<text transform="matrix(1 0 0 1 113.8571 489)" class="booth-label st1 booth-small-text">250</text>
		</g>
		<g id="251">
			<path vector-effect="none" class="booth-background" d="M150.7,470h32v28h-32V470" />
			<text transform="matrix(1 0 0 1 157.7143 489)" class="booth-label st1 booth-small-text">251</text>
		</g>
		<g id="252">
			<path vector-effect="none" class="booth-background" d="M194.6,470h32v28h-32V470" />
			<text transform="matrix(1 0 0 1 201.5714 489)" class="booth-label st1 booth-small-text">252</text>
		</g>
		<g id="253">
			<path vector-effect="none" class="booth-background" d="M238.4,470h32v28h-32V470" />
			<text transform="matrix(1 0 0 1 245.4286 489)" class="booth-label st1 booth-small-text">253</text>
		</g>
		<g id="254">
			<path vector-effect="none" class="booth-background" d="M282.3,470h32v28h-32V470" />
			<text transform="matrix(1 0 0 1 289.2857 489)" class="booth-label st1 booth-small-text">254</text>
		</g>
		<g id="255">
			<path vector-effect="none" class="booth-background" d="M326.1,470h32v28h-32V470" />
			<text transform="matrix(1 0 0 1 333.1429 489)" class="booth-label st1 booth-small-text">255</text>
		</g>
		<g id="256">
			<path vector-effect="none" class="booth-background" d="M370,470h32v28h-32V470" />
			<g>
				<text transform="matrix(1 0 0 1 377 489)" class="booth-label st1 booth-small-text">256</text>
			</g>
		</g>
		<g id="257">
			<path vector-effect="none" class="booth-background" d="M438,479h32v28h-32V479" />
			<text transform="matrix(1 0 0 1 446 498)" class="booth-label st1 booth-small-text">257</text>
		</g>
		<g id="258">
			<path vector-effect="none" class="booth-background" d="M472,479h32v28h-32V479" />
			<text transform="matrix(1 0 0 1 480 498)" class="booth-label st1 booth-small-text">258</text>
		</g>
		<g id="259">
			<path vector-effect="none" class="booth-background" d="M506,479h32v28h-32V479" />
			<text transform="matrix(1 0 0 1 514 498)" class="booth-label st1 booth-small-text">259</text>
		</g>
		<g id="260">
			<path vector-effect="none" class="booth-background" d="M540,479h32v28h-32V479" />
			<text transform="matrix(1 0 0 1 548 498)" class="booth-label st1 booth-small-text">260</text>
		</g>
		<g id="261">
			<path vector-effect="none" class="booth-background" d="M574,479h32v28h-32V479" />
			<text transform="matrix(1 0 0 1 582 498)" class="booth-label st1 booth-small-text">261</text>
		</g>
		<g id="262">
			<path vector-effect="none" class="booth-background" d="M608,479h32v28h-32V479" />
			<text transform="matrix(1 0 0 1 616 498)" class="booth-label st1 booth-small-text">262</text>
		</g>
		<g id="263">
			<path vector-effect="none" class="booth-background" d="M642,479h32v28h-32V479" />
			<text transform="matrix(1 0 0 1 650 498)" class="booth-label st1 booth-small-text">263</text>
		</g>
		<g id="264">
			<path vector-effect="none" class="booth-background" d="M676,479h32v28h-32V479" />
			<text transform="matrix(1 0 0 1 684 498)" class="booth-label st1 booth-small-text">264</text>
		</g>
		<g id="265">
			<path vector-effect="none" class="booth-background" d="M710,479h32v28h-32V479" />
			<text transform="matrix(1 0 0 1 718 498)" class="booth-label st1 booth-small-text">265</text>
		</g>
		<g id="266">
			<path vector-effect="none" class="booth-background" d="M744,479h32v28h-32V479" />
			<text transform="matrix(1 0 0 1 752 498)" class="booth-label st1 booth-small-text">266</text>
		</g>
		<g id="607">
			<path vector-effect="none" class="booth-background" d="M812,447h32v28h-32V447" />
			<text transform="matrix(1 0 0 1 818.8228 466)" class="booth-label st1 booth-small-text">607</text>
		</g>
		<g id="507">
			<path vector-effect="none" class="booth-background" d="M0,497.2h32v28H0V497.2" />
			<text transform="matrix(1 0 0 1 7 516.2)" class="booth-label st1 booth-small-text">507</text>
		</g>
		<g id="300">
			<path vector-effect="none" class="booth-background" d="M63,509h32v28H63V509" />
			<text transform="matrix(1 0 0 1 70 528)" class="booth-label st1 booth-small-text">300</text>
		</g>
		<g id="301">
			<path vector-effect="none" class="booth-background" d="M106.9,509h32v28h-32V509" />
			<text transform="matrix(1 0 0 1 113.8571 528)" class="booth-label st1 booth-small-text">301</text>
		</g>
		<g id="302">
			<path vector-effect="none" class="booth-background" d="M150.7,509h32v28h-32V509" />
			<text transform="matrix(1 0 0 1 157.7143 528)" class="booth-label st1 booth-small-text">302</text>
		</g>
		<g id="303">
			<path vector-effect="none" class="booth-background" d="M194.6,509h32v28h-32V509" />
			<text transform="matrix(1 0 0 1 201.5714 528)" class="booth-label st1 booth-small-text">303</text>
		</g>
		<g id="304">
			<path vector-effect="none" class="booth-background" d="M238.4,509h32v28h-32V509" />
			<text transform="matrix(1 0 0 1 245.4286 528)" class="booth-label st1 booth-small-text">304</text>
		</g>
		<g id="305">
			<path vector-effect="none" class="booth-background" d="M282.3,509h32v28h-32V509" />
			<text transform="matrix(1 0 0 1 289.2857 528)" class="booth-label st1 booth-small-text">305</text>
		</g>
		<g id="306">
			<path vector-effect="none" class="booth-background" d="M326.1,509h32v28h-32V509" />
			<text transform="matrix(1 0 0 1 333.1429 528)" class="booth-label st1 booth-small-text">306</text>
		</g>
		<g id="307">
			<path vector-effect="none" class="booth-background" d="M370,509h32v28h-32V509" />
			<text transform="matrix(1 0 0 1 377 528)" class="booth-label st1 booth-small-text">307</text>
		</g>
		<g id="308">
			<path vector-effect="none" class="booth-background" d="M438,509h32v28h-32V509" />
			<text transform="matrix(1 0 0 1 445 527)" class="booth-label st1 booth-small-text">308</text>
		</g>
		<g id="309">
			<path vector-effect="none" class="booth-background" d="M472,509h32v28h-32V509" />
			<text transform="matrix(1 0 0 1 479 527)" class="booth-label st1 booth-small-text">309</text>
		</g>
		<g id="310">
			<path vector-effect="none" class="booth-background" d="M506,509h32v28h-32V509" />
			<text transform="matrix(1 0 0 1 513 527)" class="booth-label st1 booth-small-text">310</text>
		</g>
		<g id="311">
			<path vector-effect="none" class="booth-background" d="M540,509h32v28h-32V509" />
			<text transform="matrix(1 0 0 1 547.5 527)" class="booth-label st1 booth-small-text">311</text>
		</g>
		<g id="312">
			<path vector-effect="none" class="booth-background" d="M574,509h32v28h-32V509" />
			<text transform="matrix(1 0 0 1 581 527)" class="booth-label st1 booth-small-text">312</text>
		</g>
		<g id="313">
			<path vector-effect="none" class="booth-background" d="M608,509h32v28h-32V509" />
			<text transform="matrix(1 0 0 1 615 527)" class="booth-label st1 booth-small-text">313</text>
		</g>
		<g id="314">
			<path vector-effect="none" class="booth-background" d="M642,509h32v28h-32V509" />
			<text transform="matrix(1 0 0 1 649 527)" class="booth-label st1 booth-small-text">314</text>
		</g>
		<g id="315">
			<path vector-effect="none" class="booth-background" d="M676,509h32v28h-32V509" />
			<text transform="matrix(1 0 0 1 683 527)" class="booth-label st1 booth-small-text">315</text>
		</g>
		<g id="316">
			<path vector-effect="none" class="booth-background" d="M710,509h32v28h-32V509" />
			<text transform="matrix(1 0 0 1 717 527)" class="booth-label st1 booth-small-text">316</text>
		</g>
		<g id="317">
			<path vector-effect="none" class="booth-background" d="M744,509h32v28h-32V509" />
			<text transform="matrix(1 0 0 1 751 527)" class="booth-label st1 booth-small-text">317</text>
		</g>
		<g id="608">
			<path vector-effect="none" class="booth-background" d="M812,478h32v28h-32V478" />
			<text transform="matrix(1 0 0 1 818.8228 497)" class="booth-label st1 booth-small-text">608</text>
		</g>
		<g id="508">
			<path vector-effect="none" class="booth-background" d="M0,531h32v28H0V531" />
			<text transform="matrix(1 0 0 1 7 550)" class="booth-label st1 booth-small-text">508</text>
		</g>
		<g id="609">
			<path vector-effect="none" class="booth-background" d="M812,509h32v28h-32V509" />
			<text transform="matrix(1 0 0 1 818.8228 528)" class="booth-label st1 booth-small-text">609</text>
		</g>
		<g id="2002">
			<path vector-effect="none" class="booth-background" d="M63,569h339v88H63V569" />
			<text transform="matrix(1 0 0 1 125.2566 616.8516)" class="booth-label st1 booth-large-text">Job Fair and Veteran Muster</text>
		</g>
		<g id="318">
			<path vector-effect="none" class="booth-background" d="M438,569h32v28h-32V569" />
			<text transform="matrix(1 0 0 1 445 587)" class="booth-label st1 booth-small-text">318</text>
		</g>
		<g id="319">
			<path vector-effect="none" class="booth-background" d="M472,569h32v28h-32V569" />
			<text transform="matrix(1 0 0 1 479 587)" class="booth-label st1 booth-small-text">319</text>
		</g>
		<g id="320">
			<path vector-effect="none" class="booth-background" d="M506,569h32v28h-32V569" />
			<text transform="matrix(1 0 0 1 513 587)" class="booth-label st1 booth-small-text">320</text>
		</g>
		<g id="321">
			<path vector-effect="none" class="booth-background" d="M540,569h32v28h-32V569" />
			<text transform="matrix(1 0 0 1 547 587)" class="booth-label st1 booth-small-text">321</text>
		</g>
		<g id="322">
			<path vector-effect="none" class="booth-background" d="M574,569h32v28h-32V569" />
			<text transform="matrix(1 0 0 1 581 587)" class="booth-label st1 booth-small-text">322</text>
		</g>
		<g id="323">
			<path vector-effect="none" class="booth-background" d="M608,569h32v28h-32V569" />
			<text transform="matrix(1 0 0 1 615 587)" class="booth-label st1 booth-small-text">323</text>
		</g>
		<g id="324">
			<path vector-effect="none" class="booth-background" d="M642,569h32v28h-32V569" />
			<text transform="matrix(1 0 0 1 649 587)" class="booth-label st1 booth-small-text">324</text>
		</g>
		<g id="325">
			<path vector-effect="none" class="booth-background" d="M676,569h32v28h-32V569" />
			<text transform="matrix(1 0 0 1 683 587)" class="booth-label st1 booth-small-text">325</text>
		</g>
		<g id="326">
			<path vector-effect="none" class="booth-background" d="M710,569h32v28h-32V569" />
			<text transform="matrix(1 0 0 1 717 587)" class="booth-label st1 booth-small-text">326</text>
		</g>
		<g id="327">
			<path vector-effect="none" class="booth-background" d="M744,569h32v28h-32V569" />
			<text transform="matrix(1 0 0 1 751 587)" class="booth-label st1 booth-small-text">327</text>
		</g>
		<g id="509">
			<path vector-effect="none" class="booth-background" d="M0,599h32v28H0V599" />
			<text transform="matrix(1 0 0 1 7 618)" class="booth-label st1 booth-small-text">509</text>
		</g>
		<g id="510">
			<path vector-effect="none" class="booth-background" d="M0,629h32v28H0V629" />
			<text transform="matrix(1 0 0 1 7 648)" class="booth-label st1 booth-small-text">510</text>
		</g>
		<g id="511">
			<path vector-effect="none" class="booth-background" d="M0,659h32v28H0V659" />
			<text transform="matrix(1 0 0 1 7.3035 678)" class="booth-label st1 booth-small-text">511</text>
		</g>
		<g id="400">
			<path vector-effect="none" class="booth-background" d="M63,689h32v28H63V689" />
			<text transform="matrix(1 0 0 1 70 708)" class="booth-label st1 booth-small-text">400</text>
		</g>
		<g id="401">
			<path vector-effect="none" class="booth-background" d="M106.9,689h32v28h-32V689" />
			<text transform="matrix(1 0 0 1 113.8571 708)" class="booth-label st1 booth-small-text">401</text>
		</g>
		<g id="402">
			<path vector-effect="none" class="booth-background" d="M150.7,689h32v28h-32V689" />
			<text transform="matrix(1 0 0 1 157.7143 708)" class="booth-label st1 booth-small-text">402</text>
		</g>
		<g id="403">
			<path vector-effect="none" class="booth-background" d="M194.6,689h32v28h-32V689" />
			<text transform="matrix(1 0 0 1 201.5714 708)" class="booth-label st1 booth-small-text">403</text>
		</g>
		<g id="404">
			<path vector-effect="none" class="booth-background" d="M238.4,689h32v28h-32V689" />
			<text transform="matrix(1 0 0 1 245.4286 708)" class="booth-label st1 booth-small-text">404</text>
		</g>
		<g id="405">
			<path vector-effect="none" class="booth-background" d="M282.3,689h32v28h-32V689" />
			<text transform="matrix(1 0 0 1 289.2857 708)" class="booth-label st1 booth-small-text">405</text>
		</g>
		<g id="406">
			<path vector-effect="none" class="booth-background" d="M326.1,689h32v28h-32V689" />
			<text transform="matrix(1 0 0 1 333.1429 708)" class="booth-label st1 booth-small-text">406</text>
		</g>
		<g id="407">
			<path vector-effect="none" class="booth-background" d="M370,689h32v28h-32V689" />
			<text transform="matrix(1 0 0 1 377 708)" class="booth-label st1 booth-small-text">407</text>
		</g>
		<g id="2003">
			<path vector-effect="none" class="booth-background" d="M188,263h89v166h-89V263" />
			<text transform="matrix(1 0 0 1 201.3789 340.2515)" class="booth-label st1 booth-large-text">
				<tspan x="0" y="0">Feature</tspan>
				<tspan x="5" y="25">Area 3</tspan>
			</text>
		</g>
		<g id="2004">
			<path vector-effect="none" class="booth-background" d="M313,263h89v166h-89V263" />
			<text transform="matrix(1 0 0 1 326.3789 340.2515)" class="booth-label st1 booth-large-text">
				<tspan x="0" y="0">Feature</tspan>
				<tspan x="5" y="25">Area 4</tspan>
			</text>
		</g>
		<g id="2005">
			<path vector-effect="none" class="booth-background" d="M541,263h134v166H541V263" />
			<text transform="matrix(1 0 0 1 576.8789 340.2515)" class="booth-label st1 booth-large-text">
				<tspan x="0" y="0">Feature</tspan>
				<tspan x="5" y="25">Area 5</tspan>
			</text>
		</g>
	</g>
</svg>